<svg viewBox="0 0 36 36" fill="none" xmlns="http://www.w3.org/2000/svg" width="48" height="48" name="carcatalog"><g clip-path="url(#clip0_39607_109407)"><path d="M11.2753 22.6433L9.14163 22.1831C8.83705 22.1178 8.52201 22.1935 8.27751 22.3915C8.02882 22.5921 7.88672 22.8889 7.88672 23.205V24.0827C7.88672 24.3256 7.88672 25.0649 9.20328 25.0649H11.6274C12.4095 25.0649 12.526 24.6328 12.526 24.3753V24.253C12.5689 23.5007 12.0433 22.8241 11.2753 22.6433ZM11.4958 24.0618C9.57997 24.0618 9.06797 24.0613 8.88981 24.0398V23.205C8.88981 23.1909 8.90235 23.1747 8.90601 23.1731L8.91803 23.1789L11.059 23.6407C11.2654 23.7008 11.4273 23.8601 11.4958 24.0618Z" fill="#05A660"></path><path d="M13.5312 24.9639C13.5312 25.2716 13.746 25.4863 14.0537 25.4863H19.3199C19.5712 25.4863 19.8424 25.2867 19.8424 24.9639C19.8424 24.641 19.5712 24.4414 19.3199 24.4414H14.0537C13.8024 24.4414 13.5312 24.641 13.5312 24.9639Z" fill="#05A660"></path><path d="M19.3199 26.0703H14.0537C13.8024 26.0703 13.5312 26.2699 13.5312 26.5928C13.5312 26.9005 13.746 27.1152 14.0537 27.1152H19.3199C19.5712 27.1152 19.8424 26.9156 19.8424 26.5928C19.8424 26.2699 19.5712 26.0703 19.3199 26.0703Z" fill="#05A660"></path><path d="M30.1873 7.17883H28.7454V6.69818C28.7454 6.44688 28.5458 6.17573 28.2229 6.17573H27.2606C27.0083 5.18727 26.1436 4.50391 25.1301 4.50391C24.1087 4.50391 23.2075 5.21652 22.9964 6.17573H21.9954C21.7441 6.17573 21.4729 6.37531 21.4729 6.69818V7.13703H20.031C19.3513 7.13703 18.798 7.6903 18.798 8.37001V14.0333H11.7973C10.8464 14.0333 10.0053 14.5991 9.65365 15.4747L8.09938 18.7029C7.69501 18.2097 7.08949 17.9203 6.4474 17.9203H5.73688C5.05718 17.9203 4.50391 18.4736 4.50391 19.1533V19.613C4.50391 20.2927 5.05718 20.846 5.73688 20.846H6.61824C6.25044 21.392 6.05035 22.0884 6.05035 22.8313V25.339C6.05035 26.3223 6.39725 27.2596 7.05344 28.0521V29.8948C7.05344 30.7819 7.77546 31.5039 8.66258 31.5039H10.209C11.0961 31.5039 11.8181 30.7819 11.8181 29.8948V29.2469H21.6401V29.8948C21.6401 30.7819 22.3621 31.5039 23.2493 31.5039H24.7957C25.6828 31.5039 26.4048 30.7819 26.4048 29.8948V28.0532C27.061 27.3003 27.4079 26.363 27.4079 25.3385V23.7712H30.2291C30.9088 23.7712 31.4621 23.2179 31.4621 22.5382V8.4118C31.4621 7.74359 30.8785 7.17883 30.1873 7.17883ZM8.62287 19.9683C8.67146 19.8884 8.74617 19.7316 8.97813 19.2473C9.23622 18.7082 9.71635 17.7045 10.5956 15.8974L10.5993 15.889C10.7915 15.3891 11.2508 15.0782 11.7973 15.0782H18.7562V19.9683H8.62287ZM22.476 8.14013V7.22062H23.4164C23.6677 7.22062 23.9389 7.02105 23.9389 6.69818C23.9389 6.05348 24.4619 5.5488 25.1301 5.5488C25.7868 5.5488 26.3212 6.08326 26.3212 6.73997C26.3212 6.99127 26.5208 7.26242 26.8437 7.26242H27.7841V8.14013H22.476ZM19.8011 22.4969V13.6828V8.4118C19.8011 8.30209 19.9213 8.18192 20.031 8.18192H21.4729V8.62078C21.4729 8.87208 21.6725 9.14323 21.9954 9.14323H28.2647C28.516 9.14323 28.7872 8.94365 28.7872 8.62078V8.18192H30.2291C30.3389 8.18192 30.459 8.30209 30.459 8.4118V22.3925H30.4172V22.4969C30.4172 22.6067 30.2971 22.7268 30.1873 22.7268H20.031C19.9213 22.7268 19.8011 22.6067 19.8011 22.4969ZM22.6432 29.853V29.2051H23.7926C24.3229 29.2051 24.8725 29.0683 25.3599 28.8175V29.853C25.3599 30.1586 25.0825 30.4172 24.7539 30.4172H23.2075C22.8909 30.4172 22.6432 30.1696 22.6432 29.853ZM8.05654 28.8175C8.54346 29.0683 9.09359 29.2051 9.62388 29.2051H10.7733V29.853C10.7733 30.1696 10.5256 30.4172 10.209 30.4172H8.62078C8.30418 30.4172 8.05654 30.1696 8.05654 29.853V28.8175ZM7.53879 19.7389C7.51633 19.7729 7.49021 19.8011 7.44841 19.8429H5.75046C5.65485 19.8152 5.5488 19.7405 5.5488 19.613V19.1533C5.5488 19.0441 5.62769 18.9652 5.73688 18.9652H6.4474C7.12032 18.9652 7.40557 19.4924 7.52782 19.7181C7.53148 19.7254 7.53514 19.7322 7.53879 19.7389ZM20.031 23.7299H20.9202C20.8716 23.8757 20.846 24.0413 20.846 24.2106V24.2539L20.8491 24.2571C20.8491 24.2597 20.8486 24.2623 20.8486 24.2649C20.8408 24.3636 20.8241 24.5695 20.986 24.7455C21.16 24.9341 21.4761 25.0256 21.9536 25.0256H24.2524C24.883 25.0256 25.5271 24.9091 25.5271 24.0434V23.6881H26.363V25.2972C26.363 26.0224 26.1013 26.7517 25.6452 27.2993C25.1598 27.8813 24.5021 28.202 23.7926 28.202H9.62388C8.94104 28.202 8.29373 27.8865 7.80158 27.3139C7.32616 26.7611 7.05344 26.0261 7.05344 25.2972V22.7895C7.05344 22.1349 7.30787 21.5074 7.78905 20.9714H18.798V22.4969C18.798 23.1766 19.3513 23.7299 20.031 23.7299ZM21.8967 24.1061C21.916 23.9378 21.9844 23.826 22.1004 23.7717H24.524V24.0758C24.1782 24.0972 22.8501 24.1056 21.8967 24.1061Z" fill="#05A660"></path><path d="M25.2936 6.14218C25.0695 6.03508 24.7691 6.14688 24.6207 6.394L24.617 6.40131C24.5173 6.60037 24.5559 6.8177 24.7205 6.98175C24.8171 7.0784 24.9436 7.13065 25.0763 7.13065C25.1034 7.13065 25.1311 7.12856 25.1583 7.12386C25.3291 7.09617 25.478 6.98593 25.5564 6.8292L25.5601 6.82136C25.6212 6.66828 25.6222 6.50633 25.5621 6.3778C25.5109 6.26652 25.418 6.18502 25.2936 6.14218Z" fill="#05A660"></path><path d="M24.8349 12.4043H29.3489C29.6002 12.4043 29.8713 12.2047 29.8713 11.8818C29.8713 11.5589 29.6002 11.3594 29.3489 11.3594H24.8349C24.5836 11.3594 24.3125 11.5589 24.3125 11.8818C24.3125 12.1895 24.5272 12.4043 24.8349 12.4043Z" fill="#05A660"></path><path d="M21.3369 13.0032C21.4414 13.1077 21.5725 13.16 21.7032 13.16C21.8343 13.16 21.9649 13.1077 22.0694 13.0032L23.574 11.4986C23.783 11.2896 23.783 10.9746 23.574 10.7656C23.4737 10.6648 23.3431 10.6094 23.2078 10.6094C23.0725 10.6094 22.9419 10.6648 22.8416 10.7656L21.7032 11.904L21.2335 11.4343C21.0245 11.2253 20.7095 11.2253 20.5005 11.4343C20.2915 11.6433 20.2915 11.9583 20.5005 12.1673L21.3369 13.0032Z" fill="#05A660"></path><path d="M24.8349 16.209H29.3489C29.6002 16.209 29.8713 16.0094 29.8713 15.6865C29.8713 15.3636 29.6002 15.1641 29.3489 15.1641H24.8349C24.5836 15.1641 24.3125 15.3636 24.3125 15.6865C24.3125 15.9942 24.5272 16.209 24.8349 16.209Z" fill="#05A660"></path><path d="M21.3369 16.8035C21.4414 16.908 21.5725 16.9602 21.7032 16.9602C21.8343 16.9602 21.9654 16.908 22.0694 16.8035L23.574 15.2988C23.6749 15.198 23.7302 15.0679 23.7302 14.9326C23.7302 14.7968 23.6749 14.6667 23.574 14.5664C23.4737 14.4655 23.3431 14.4102 23.2078 14.4102C23.0725 14.4102 22.9419 14.4655 22.8416 14.5664L21.7032 15.7048L21.2335 15.2351C21.0245 15.0261 20.7095 15.0261 20.5005 15.2351C20.2915 15.4441 20.2915 15.7591 20.5005 15.9681L21.3369 16.8035Z" fill="#05A660"></path><path d="M24.8349 20.0527H29.3489C29.6002 20.0527 29.8713 19.8531 29.8713 19.5303C29.8713 19.2074 29.6002 19.0078 29.3489 19.0078H24.8349C24.5836 19.0078 24.3125 19.2074 24.3125 19.5303C24.3125 19.838 24.5272 20.0527 24.8349 20.0527Z" fill="#05A660"></path><path d="M23.1885 19.5292L23.5746 19.1431C23.6822 19.0355 23.7402 18.8782 23.7292 18.7236C23.7198 18.593 23.6618 18.4775 23.5694 18.4054C23.4696 18.3082 23.3416 18.2544 23.2078 18.2544C23.072 18.2544 22.9419 18.3098 22.8416 18.4106L22.4555 18.7967L22.0694 18.4106C21.8604 18.2017 21.5454 18.2017 21.3364 18.4106C21.1274 18.6196 21.1274 18.9347 21.3364 19.1436L21.7225 19.5297L21.3364 19.9158C21.1274 20.1248 21.1274 20.4398 21.3364 20.6488C21.4409 20.7533 21.572 20.8055 21.7027 20.8055C21.8338 20.8055 21.9644 20.7533 22.0689 20.6488L22.455 20.2627L22.8411 20.6488C22.9414 20.7496 23.072 20.805 23.2073 20.805C23.3426 20.805 23.4732 20.7496 23.5735 20.6488C23.7825 20.4398 23.7825 20.1248 23.5735 19.9158L23.1885 19.5292Z" fill="#05A660"></path></g><defs><clipPath id="clip0_39607_109407"><rect width="26.9582" height="27" fill="#05A660" transform="translate(4.5 4.5)"></rect></clipPath></defs></svg>