<svg viewBox="0 0 36 36" fill="#F4A81B" xmlns="http://www.w3.org/2000/svg" width="48" height="48" name="orderlist"><path d="M28.3846 14.1923H25.9615V9.69231C25.9615 6.34431 24.1172 4.5 20.7692 4.5H9.69231C6.34431 4.5 4.5 6.34431 4.5 9.69231V26.3077C4.5 29.6557 6.34431 31.5 9.69231 31.5H27.6923C29.7928 31.5 31.5 29.7928 31.5 27.6923V17.3077C31.5 15.5894 30.1015 14.1923 28.3846 14.1923ZM9.69231 29.4231C7.50877 29.4231 6.57692 28.4912 6.57692 26.3077V9.69231C6.57692 7.50877 7.50877 6.57692 9.69231 6.57692H20.7692C22.9528 6.57692 23.8846 7.50877 23.8846 9.69231V27.6923C23.8846 28.3154 24.0342 28.9038 24.3014 29.4231H9.69231ZM29.4231 27.6923C29.4231 28.6463 28.6463 29.4231 27.6923 29.4231C26.7383 29.4231 25.9615 28.6463 25.9615 27.6923V16.2692H28.3846C28.9565 16.2692 29.4231 16.7345 29.4231 17.3077V27.6923ZM21.1154 12.4615C21.1154 13.0348 20.6502 13.5 20.0769 13.5H13.8462C13.2729 13.5 12.8077 13.0348 12.8077 12.4615C12.8077 11.8883 13.2729 11.4231 13.8462 11.4231H20.0769C20.6502 11.4231 21.1154 11.8883 21.1154 12.4615ZM21.1154 18C21.1154 18.5732 20.6502 19.0385 20.0769 19.0385H13.8462C13.2729 19.0385 12.8077 18.5732 12.8077 18C12.8077 17.4268 13.2729 16.9615 13.8462 16.9615H20.0769C20.6502 16.9615 21.1154 17.4268 21.1154 18ZM21.1154 23.5385C21.1154 24.1117 20.6502 24.5769 20.0769 24.5769H13.8462C13.2729 24.5769 12.8077 24.1117 12.8077 23.5385C12.8077 22.9652 13.2729 22.5 13.8462 22.5H20.0769C20.6502 22.5 21.1154 22.9652 21.1154 23.5385ZM11.4231 12.4615C11.4231 13.0348 10.9578 13.5 10.3846 13.5C9.81138 13.5 9.34615 13.0348 9.34615 12.4615C9.34615 11.8883 9.81138 11.4231 10.3846 11.4231C10.9578 11.4231 11.4231 11.8883 11.4231 12.4615ZM11.4231 18C11.4231 18.5732 10.9578 19.0385 10.3846 19.0385C9.81138 19.0385 9.34615 18.5732 9.34615 18C9.34615 17.4268 9.81138 16.9615 10.3846 16.9615C10.9578 16.9615 11.4231 17.4268 11.4231 18ZM11.4231 23.5385C11.4231 24.1117 10.9578 24.5769 10.3846 24.5769C9.81138 24.5769 9.34615 24.1117 9.34615 23.5385C9.34615 22.9652 9.81138 22.5 10.3846 22.5C10.9578 22.5 11.4231 22.9652 11.4231 23.5385Z" fill="#F4A81B"></path></svg>