<svg viewBox="0 0 40 40" fill="#8476A9" xmlns="http://www.w3.org/2000/svg" width="48" height="48" name="classicCar"><path d="M2.09969 21.993C2.08259 21.9734 2.06548 21.9533 2.05876 21.9441C1.8928 21.7326 1.77561 21.4871 1.71555 21.225C1.65548 20.963 1.65403 20.6909 1.71129 20.4282C1.76856 20.1656 1.88312 19.9188 2.0468 19.7055C2.21048 19.4923 2.41924 19.3178 2.65816 19.1945C3.48884 18.7738 4.4069 18.5544 5.33807 18.5542C5.54337 18.5542 5.74683 18.5676 5.94908 18.5878L5.94908 17.3322C5.94908 16.846 6.1422 16.3798 6.48597 16.036C6.82973 15.6923 7.29597 15.4991 7.78212 15.4991L18.1168 15.4991L18.6637 13.4217C18.5106 13.3087 18.3862 13.1614 18.3003 12.9916C18.2145 12.8218 18.1696 12.6343 18.1694 12.4441L18.1694 11.833C18.1694 11.3469 18.3625 10.8806 18.7062 10.5369C19.05 10.1931 19.5163 10 20.0024 10L31.0007 10C31.8106 10.001 32.5871 10.3232 33.1598 10.8959C33.7326 11.4686 34.0548 12.2451 34.0557 13.0551L34.0557 16.759C34.2178 16.7936 34.3744 16.8499 34.5213 16.9265C34.7297 16.6121 35.0303 16.37 35.3819 16.2334C35.7335 16.0969 36.1188 16.0727 36.4847 16.164C36.8506 16.2554 37.1793 16.4579 37.4254 16.7437C37.6716 17.0294 37.8231 17.3844 37.8593 17.7599L38.3237 22.4036C38.3483 22.6433 38.3253 22.8854 38.2559 23.1162C38.1864 23.3469 38.072 23.5616 37.9192 23.7478C37.7703 23.9322 37.5866 24.0854 37.3785 24.1986C37.1704 24.3118 36.9419 24.3829 36.7063 24.4077C36.6378 24.4166 36.5688 24.4207 36.4998 24.4199C36.2261 24.4203 35.9559 24.3592 35.709 24.2411C35.4622 24.1229 35.245 23.9508 35.0737 23.7374C34.7731 23.9412 34.4188 24.0512 34.0557 24.0533L34.0007 24.0533C34.081 24.5275 34.067 25.0129 33.9597 25.4817C33.8523 25.9506 33.6537 26.3937 33.3751 26.7857C33.0965 27.1778 32.7435 27.5111 32.3361 27.7667C31.9286 28.0223 31.4749 28.1952 31.0007 28.2754C30.5264 28.3557 30.0411 28.3417 29.5722 28.2344C29.1034 28.127 28.6603 27.9284 28.2683 27.6498C27.8762 27.3712 27.5429 27.0182 27.2873 26.6107C27.0316 26.2033 26.8588 25.7496 26.7785 25.2753L8.94916 25.2753C8.857 25.83 8.63852 26.3559 8.31062 26.8126C7.98272 27.2693 7.55417 27.6444 7.05813 27.909C6.56208 28.1736 6.01183 28.3206 5.44991 28.3386C4.88799 28.3566 4.32946 28.2451 3.81751 28.0127C3.30557 27.7804 2.85392 27.4334 2.49749 26.9986C2.14107 26.5638 1.88941 26.0529 1.76199 25.5053C1.63456 24.9577 1.63479 24.3882 1.76264 23.8407C1.89049 23.2932 2.14253 22.7825 2.4993 22.348C2.34867 22.2509 2.21389 22.1311 2.09969 21.993ZM7.78212 16.7212C7.62007 16.7212 7.46466 16.7855 7.35007 16.9001C7.23548 17.0147 7.17111 17.1701 7.17111 17.3322L7.17111 18.8408C8.28675 19.1901 9.2789 19.8519 10.03 20.7477C10.2365 21.009 10.498 21.2217 10.7959 21.3705C11.0938 21.5194 11.4208 21.6009 11.7537 21.6093L16.5086 21.6093L17.7948 16.7212L7.78212 16.7212ZM29.1676 16.7212L29.1676 14.2771C29.1676 14.115 29.1032 13.9596 28.9887 13.845C28.8741 13.7305 28.7187 13.6661 28.5566 13.6661L24.8905 13.6661L24.8905 16.7212L29.1676 16.7212ZM23.6685 13.6661L19.8625 13.6661L19.0584 16.7212L23.6685 16.7212L23.6685 13.6661ZM31.0007 11.222L20.0024 11.222C19.8404 11.222 19.6849 11.2864 19.5704 11.401C19.4558 11.5156 19.3914 11.671 19.3914 11.833L19.3914 12.4441L28.5566 12.4441C29.0428 12.4441 29.509 12.6372 29.8528 12.9809C30.1965 13.3247 30.3896 13.7909 30.3896 14.2771L30.3896 16.7212L32.8337 16.7212L32.8337 13.0551C32.8337 12.5689 32.6406 12.1027 32.2968 11.7589C31.9531 11.4152 31.4868 11.222 31.0007 11.222ZM36.4998 23.1979L36.5609 23.1979C36.641 23.1899 36.7188 23.1661 36.7897 23.128C36.8606 23.0898 36.9232 23.038 36.9741 22.9755C37.0249 22.9131 37.0628 22.8412 37.0858 22.764C37.1087 22.6868 37.1162 22.6059 37.1077 22.5258L36.6428 17.8821C36.6363 17.8018 36.6136 17.7236 36.5762 17.6522C36.5387 17.5809 36.4872 17.5178 36.4248 17.4669C36.3624 17.4159 36.2903 17.3781 36.2129 17.3557C36.1354 17.3333 36.0543 17.3267 35.9743 17.3364C35.8171 17.352 35.672 17.4278 35.5695 17.548C35.4669 17.6681 35.4149 17.8234 35.4244 17.9811C35.4673 18.1079 35.4962 18.239 35.5106 18.3721L35.8772 22.0382C35.8902 22.1741 35.888 22.311 35.8704 22.4464L35.8888 22.648C35.903 22.7996 35.9738 22.9403 36.087 23.0422C36.2001 23.1441 36.3475 23.1996 36.4998 23.1979ZM30.3896 27.1084C30.873 27.1084 31.3456 26.965 31.7475 26.6965C32.1494 26.4279 32.4627 26.0462 32.6477 25.5996C32.8326 25.153 32.881 24.6616 32.7867 24.1875C32.6924 23.7134 32.4597 23.2779 32.1179 22.9361C31.776 22.5943 31.3406 22.3615 30.8665 22.2672C30.3924 22.1729 29.9009 22.2213 29.4543 22.4063C29.0077 22.5913 28.626 22.9046 28.3575 23.3065C28.0889 23.7084 27.9456 24.1809 27.9456 24.6643C27.9456 25.3125 28.2031 25.9342 28.6614 26.3925C29.1198 26.8509 29.7414 27.1084 30.3896 27.1084ZM30.3896 20.9983C31.0323 20.9991 31.6635 21.1689 32.2199 21.4907C32.7762 21.8124 33.2382 22.2747 33.5596 22.8313L34.0557 22.8313C34.1414 22.8317 34.2262 22.8141 34.3046 22.7797C34.383 22.7452 34.4533 22.6947 34.5109 22.6313C34.5685 22.5679 34.6122 22.4931 34.639 22.4118C34.6659 22.3305 34.6753 22.2444 34.6667 22.1592L34.3001 18.4931C34.2857 18.3415 34.215 18.2009 34.1018 18.0991C33.9886 17.9972 33.8414 17.9416 33.6891 17.9432L18.737 17.9432L17.4068 22.9975C17.304 23.3801 17.1271 23.7388 16.8862 24.0533L26.7785 24.0533C26.9235 23.2 27.3654 22.4254 28.0262 21.8664C28.687 21.3073 29.5241 20.9999 30.3896 20.9983ZM8.94916 24.0533L14.452 24.0533C14.8299 24.052 15.1983 23.9339 15.5065 23.7151C15.8147 23.4964 16.0478 23.1877 16.1738 22.8313L11.7537 22.8313C11.2418 22.8235 10.7378 22.703 10.2778 22.4782C9.81776 22.2535 9.41293 21.9301 9.09214 21.5311C8.63313 20.9814 8.05897 20.5394 7.41026 20.2361C6.76156 19.9329 6.05415 19.7759 5.33807 19.7762C4.60021 19.7766 3.87281 19.9508 3.2148 20.2846C3.13848 20.3275 3.07217 20.3861 3.02028 20.4566C2.96839 20.5271 2.9321 20.6078 2.91384 20.6934C2.89557 20.779 2.89575 20.8676 2.91435 20.9531C2.93295 21.0386 2.96954 21.1192 3.02171 21.1895C3.09336 21.2931 3.19759 21.3698 3.31784 21.4073C3.43808 21.4448 3.56741 21.4411 3.68527 21.3966C4.19698 21.1358 4.76298 20.9993 5.33733 20.9981C5.91169 20.9969 6.47823 21.1312 6.99098 21.39C7.50374 21.6488 7.94826 22.0248 8.28849 22.4876C8.62871 22.9503 8.85506 23.4867 8.94916 24.0533ZM5.33807 27.1084C5.82146 27.1084 6.29399 26.9651 6.69591 26.6965C7.09784 26.4279 7.4111 26.0462 7.59608 25.5996C7.78107 25.153 7.82947 24.6616 7.73516 24.1875C7.64086 23.7134 7.40808 23.2779 7.06628 22.9361C6.72447 22.5943 6.28898 22.3615 5.81488 22.2672C5.34078 22.1729 4.84936 22.2213 4.40277 22.4063C3.95617 22.5913 3.57447 22.9046 3.30591 23.3065C3.03735 23.7084 2.89401 24.1809 2.89401 24.6643C2.89401 25.3125 3.15151 25.9342 3.60986 26.3925C4.06821 26.8509 4.68986 27.1084 5.33807 27.1084Z" fill="#8476A9" stroke="#8476A9" stroke-width="0.333333"></path></svg>