<svg viewBox="0 0 18 18" fill="none" xmlns="http://www.w3.org/2000/svg" width="48" height="48" name="carPrice"><g clip-path="url(#clip0_36465_854)"><path d="M3.48828 13.4808H5.28973C5.70422 13.4808 5.9419 13.3029 5.9419 12.9924V12.9087V12.9049C5.9111 12.3391 5.5361 11.8974 4.98683 11.7799L3.42016 11.4447C3.19407 11.4011 2.96581 11.4537 2.79407 11.5894C2.62125 11.7258 2.52197 11.932 2.52197 12.1549V12.7967C2.52161 13.3772 3.02052 13.4543 3.48828 13.4808ZM3.21726 12.7633V12.1273C3.21726 12.1019 3.2256 12.0869 3.2332 12.0816C3.24226 12.0754 3.2582 12.0792 3.2669 12.082L4.86654 12.4183C5.04118 12.4601 5.1832 12.5972 5.23212 12.7636C4.89878 12.78 3.5169 12.78 3.21726 12.7633Z" fill="#EFB3A5"></path><path d="M12.4611 13.4226C12.5702 13.4512 12.9169 13.4592 13.3774 13.4592C13.5897 13.4592 13.8263 13.4575 14.0752 13.4554C14.2528 13.454 14.4136 13.4526 14.5365 13.4526C14.9408 13.4526 15.4785 13.3818 15.4785 12.7689V12.1294C15.4919 11.9355 15.4089 11.7471 15.2506 11.6128C15.072 11.4611 14.8212 11.3983 14.5803 11.4447L12.9847 11.7799C12.4307 11.8985 12.0582 12.3408 12.0582 12.8791L12.0578 12.8854C12.0357 13.1686 12.1828 13.3643 12.4611 13.4226ZM12.7981 12.7828C12.8452 12.6115 12.9683 12.4856 13.1318 12.4465L14.726 12.1116L14.7336 12.1096C14.7386 12.1078 14.7466 12.1057 14.7539 12.1057C14.7589 12.1057 14.7636 12.1068 14.7673 12.1092C14.7745 12.1141 14.7832 12.1294 14.7832 12.1549V12.7622C14.5303 12.7765 13.5234 12.7825 12.7981 12.7828Z" fill="#EFB3A5"></path><path d="M7.05812 13.7563H10.9422C11.1165 13.7563 11.3045 13.623 11.3045 13.4074C11.3045 13.202 11.1556 13.0586 10.9422 13.0586H7.05812C6.88384 13.0586 6.6958 13.1918 6.6958 13.4074C6.6958 13.6129 6.84471 13.7563 7.05812 13.7563Z" fill="#EFB3A5"></path><path d="M7.05812 14.9008H10.9422C11.1165 14.9008 11.3045 14.7675 11.3045 14.552C11.3045 14.3465 11.1556 14.2031 10.9422 14.2031H7.05812C6.88384 14.2031 6.6958 14.3364 6.6958 14.552C6.6958 14.7574 6.84471 14.9008 7.05812 14.9008Z" fill="#EFB3A5"></path><path d="M18 9.27488C17.9685 8.79209 17.5888 8.42791 17.1159 8.42791H16.5942C16.1018 8.42791 15.6594 8.64 15.3855 9.0007L14.9529 8.16768C15.688 7.82686 16.3105 7.30291 16.7562 6.64884C17.2286 5.9557 17.4783 5.14744 17.4783 4.31093C17.4489 1.93395 15.4399 0 13 0C11.817 0 10.7015 0.447209 9.85833 1.25895C9.01522 2.0707 8.55072 3.14477 8.55072 4.28372C8.55072 4.75709 8.62826 5.21163 8.7808 5.63721H5.37681C4.67754 5.63721 4.04565 6.0464 3.8029 6.65616L2.64022 8.97453C2.35471 8.61733 1.90362 8.4 1.43442 8.4H0.884058C0.413043 8.4 0 8.79768 0 9.25116V9.58605C0 10.0552 0.396739 10.4372 0.884058 10.4372H1.57971C1.28514 10.8412 1.13043 11.3348 1.13043 11.8744V13.6605C1.13043 14.3421 1.39783 15.0241 1.88406 15.5836V16.8977C1.88406 17.5054 2.39783 18 3.02899 18H4.18841C4.81957 18 5.33333 17.5054 5.33333 16.8977V16.4372H12.6377V16.8977C12.6377 17.5054 13.1515 18 13.7826 18H14.942C15.5732 18 16.087 17.5054 16.087 16.8977V15.5847C16.5801 15.045 16.8406 14.3899 16.8406 13.6884V11.9023C16.8406 11.5664 16.7536 11.1897 16.6007 10.8663C16.5326 10.7351 16.4627 10.6005 16.3638 10.4651H17.1156C17.6029 10.4651 17.9996 10.0831 17.9996 9.61395V9.27907L18 9.27488ZM4.45942 6.93035C4.59167 6.57419 4.96014 6.33488 5.37681 6.33488H9.10109C9.86486 7.71314 11.3547 8.56744 13 8.56744C13.479 8.56744 13.8953 8.50849 14.2703 8.38744C14.3286 8.49733 14.471 8.78198 14.5993 9.03837C14.763 9.36558 14.9312 9.70151 15.0246 9.87907H2.96558C3.05688 9.73256 3.30652 9.25047 4.45652 6.93698L4.45942 6.93035ZM13.029 7.86977C10.9754 7.86977 9.30435 6.26093 9.30435 4.28372C9.30435 2.30651 10.9623 0.697674 13 0.697674C15.0696 0.697674 16.7536 2.30651 16.7536 4.28372C16.7536 5.23674 16.3649 6.13605 15.6591 6.81593C14.9529 7.49547 14.0188 7.86977 13.029 7.86977ZM17.1159 9.73954H15.8141C15.7877 9.71023 15.7692 9.68093 15.7522 9.64954C15.7641 9.63209 15.7772 9.61151 15.7924 9.58709C15.9058 9.40639 16.1174 9.06977 16.5942 9.06977H17.1159C17.2196 9.06977 17.2754 9.14895 17.2754 9.22326V9.58605C17.2754 9.68581 17.1931 9.73954 17.1159 9.73954ZM13.3623 16.4093H14.2464C14.6616 16.4093 15.0649 16.3116 15.4203 16.1257V16.8977C15.4203 17.1171 15.2145 17.3023 14.971 17.3023H13.8116C13.5598 17.3023 13.3623 17.1122 13.3623 16.8698V16.4093ZM1.82609 11.8465C1.82609 11.3519 2.03152 10.8806 2.39094 10.5488H15.6362C15.7946 10.7058 15.9293 10.8897 16.0351 11.0934C16.1431 11.3274 16.2029 11.595 16.2029 11.8465V13.5628H16.1739V13.6326C16.1739 14.7788 15.3091 15.7116 14.2464 15.7116H3.75362C2.60072 15.7116 1.82609 14.6365 1.82609 13.6326V11.8465ZM0.724638 9.25116C0.724638 9.14895 0.810507 9.06977 0.884058 9.06977H1.4058C1.92717 9.06977 2.15616 9.47616 2.24239 9.62895C2.24493 9.63314 2.2471 9.63733 2.24928 9.64116C2.23986 9.65477 2.22862 9.66907 2.21739 9.68372C2.20326 9.70186 2.18877 9.72035 2.17572 9.73954H0.884058C0.806884 9.73954 0.724638 9.68581 0.724638 9.58605V9.25116ZM2.57971 16.0978C2.93515 16.2837 3.33841 16.3814 3.75362 16.3814H4.63768V16.8698C4.63768 17.1122 4.44022 17.3023 4.18841 17.3023H3.02899C2.78116 17.3023 2.57971 17.1084 2.57971 16.8698V16.0978Z" fill="#EFB3A5"></path><path d="M13.7969 3.16835C13.7969 3.33614 13.9353 3.51719 14.1592 3.51719C14.3726 3.51719 14.5215 3.37382 14.5215 3.16835C14.5215 2.49056 14.0374 1.91219 13.3621 1.77126V1.46602C13.3621 1.29823 13.2237 1.11719 12.9998 1.11719C12.7864 1.11719 12.6374 1.26056 12.6374 1.46602V1.7737C11.9519 1.94184 11.478 2.50765 11.478 3.16835C11.478 3.84614 11.9621 4.42451 12.6374 4.56544V6.05603C12.3806 5.94719 12.2027 5.68591 12.2027 5.40126C12.2027 5.23347 12.0643 5.05242 11.8403 5.05242C11.6269 5.05242 11.478 5.19579 11.478 5.40126C11.478 6.07905 11.9621 6.65742 12.6374 6.79835V7.10358C12.6374 7.27137 12.7759 7.45242 12.9998 7.45242C13.2132 7.45242 13.3621 7.30905 13.3621 7.10358V6.79591C14.0476 6.62777 14.5215 6.06195 14.5215 5.40126C14.5215 4.72347 14.0374 4.14509 13.3621 4.00416V2.49056C13.6291 2.61475 13.7969 2.87114 13.7969 3.16835ZM13.7969 5.40091C13.7969 5.67928 13.6226 5.9437 13.3621 6.07521V4.71614C13.6186 4.82184 13.7969 5.09533 13.7969 5.40091ZM12.6374 2.49405V3.86149C12.4077 3.72509 12.2027 3.47602 12.2027 3.16835C12.2027 2.88998 12.3769 2.62556 12.6374 2.49405Z" fill="#EFB3A5"></path></g><defs><clipPath id="clip0_36465_854"><rect width="18" height="18" fill="#EFB3A5"></rect></clipPath></defs></svg>