<svg viewBox="0 0 48 49" fill="#E57A00" xmlns="http://www.w3.org/2000/svg" width="48" height="48" name="loanCar"><path d="M4.96832 22.5485L13.2344 21.4264L19.5875 15.2661C19.7922 15.0676 20.0756 14.9531 20.3747 14.9531H37.4737C38.0878 14.9531 38.5837 15.434 38.5837 16.0295V21.4111L41.78 21.4188V18.3806C41.78 17.9073 42.0634 17.4569 42.5278 17.3119C43.2915 17.0753 44 17.6249 44 18.3348V25.0753C44 25.7241 43.4568 26.2432 42.7955 26.2432V30.3119C42.7955 30.9073 42.2995 31.3882 41.6855 31.3882H40.0087C39.5048 33.4264 37.6154 34.9531 35.356 34.9531C33.0966 34.9531 31.2072 33.4264 30.7034 31.3882H16.0921C15.5883 33.4264 13.6989 34.9531 11.4395 34.9531C9.18009 34.9531 7.29069 33.4264 6.78685 31.3882H5.11002C4.49597 31.3882 4 30.9073 4 30.3119V23.6096C4.00788 23.0753 4.41725 22.6249 4.96832 22.5485ZM26.9325 17.1058H20.8235L16.4228 21.373L26.9325 21.3959V17.1058ZM36.3637 17.1058H29.1604V21.3959L36.3637 21.4035V17.1058ZM6.22791 29.2432H6.79473C7.29857 27.205 9.18796 25.6783 11.4474 25.6783C13.7068 25.6783 15.5961 27.205 16.1 29.2432H30.7034C31.2072 27.205 33.0966 25.6783 35.356 25.6783C37.6154 25.6783 39.5048 27.205 40.0087 29.2432H40.5755V23.5638L13.8248 23.518L6.22791 24.5485V29.2432ZM8.88093 30.3195C8.88093 31.6936 10.0303 32.8081 11.4474 32.8081C12.8644 32.8081 14.0138 31.6936 14.0138 30.3195C14.0138 28.9455 12.8644 27.831 11.4474 27.831C10.0303 27.831 8.88093 28.9455 8.88093 30.3195ZM32.7896 30.3195C32.7896 31.6936 33.939 32.8081 35.356 32.8081C36.7731 32.8081 37.9225 31.6936 37.9225 30.3195C37.9225 28.9455 36.7731 27.831 35.356 27.831C33.939 27.831 32.7896 28.9455 32.7896 30.3195Z" fill="#E57A00"></path><circle cx="37.5" cy="9.9541" r="8.25" stroke="currentColor" stroke-width="1.5"></circle><path d="M35.6688 12.4479C35.6688 12.1666 35.4351 11.8854 35.0844 11.8854C34.7338 11.8854 34.5 12.1104 34.5 12.4479C34.5 13.7979 35.4935 14.9229 36.8377 15.1479V15.8791C36.8377 16.1604 37.0714 16.4416 37.4221 16.4416C37.7727 16.4416 38.0065 16.2166 38.0065 15.8791V15.1479C39.3506 14.8666 40.3442 13.7979 40.3442 12.4479C40.3442 11.0979 39.3506 9.97285 38.0065 9.74785V6.37285C38.7078 6.59785 39.1753 7.2166 39.1753 7.94785C39.1753 8.2291 39.4091 8.51035 39.7597 8.51035C40.1104 8.51035 40.3442 8.28535 40.3442 7.94785C40.3442 6.59785 39.3506 5.47285 38.0065 5.24785V4.5166C38.0065 4.23535 37.7727 3.9541 37.4221 3.9541C37.0714 3.9541 36.8377 4.1791 36.8377 4.5166V5.24785C35.4935 5.5291 34.5 6.59785 34.5 7.94785C34.5 9.29785 35.4935 10.4229 36.8377 10.6479V13.9666C36.1948 13.7978 35.6688 13.1791 35.6688 12.4479ZM39.1753 12.4479C39.1753 13.1791 38.6493 13.7979 38.0065 14.0229V10.8729C38.7078 11.0416 39.1753 11.7166 39.1753 12.4479ZM35.6688 7.94785C35.6688 7.2166 36.1948 6.59785 36.8377 6.37285V9.5791C36.1948 9.29785 35.6688 8.6791 35.6688 7.94785Z" fill="#E57A00" stroke="currentColor" stroke-width="0.45"></path></svg>