<svg viewBox="0 0 40 40" fill="none" xmlns="http://www.w3.org/2000/svg" width="48" height="48" name="heavyCar"><path fill-rule="evenodd" clip-rule="evenodd" d="M33.7827 18.9862C34.335 18.9862 34.7827 19.4403 34.7827 20.0007V26.0876C34.7827 27.7685 33.4396 29.1311 31.7827 29.1311H31.1378C30.7075 30.5978 29.3682 31.6673 27.7827 31.6673C26.1972 31.6673 24.8579 30.5978 24.4277 29.1311H17.1378C16.7075 30.5978 15.3682 31.6673 13.7827 31.6673C12.1972 31.6673 10.8579 30.5978 10.4277 29.1311H7.78271C6.12586 29.1311 4.78271 27.7685 4.78271 26.0876V19.4934C4.78271 19.3237 4.82472 19.1566 4.90482 19.0076L7.33632 14.4853C7.86202 13.5075 8.87216 12.8992 9.96996 12.8992H13.1049L15.9108 9.44272C16.4807 8.74068 17.3301 8.33398 18.2266 8.33398H22.7827C23.335 8.33398 23.7827 8.78819 23.7827 9.34848C23.7827 9.90878 23.335 10.363 22.7827 10.363H18.2266C17.9278 10.363 17.6446 10.4986 17.4546 10.7325L14.7827 14.024V24.7129C15.9116 25.0537 16.8018 25.9568 17.1378 27.1021H24.4277C24.8579 25.6354 26.1972 24.5659 27.7827 24.5659C29.3682 24.5659 30.7075 25.6354 31.1378 27.1021H31.7827C32.335 27.1021 32.7827 26.6479 32.7827 26.0876V20.0007C32.7827 19.4403 33.2304 18.9862 33.7827 18.9862ZM12.7827 24.7129C11.6538 25.0537 10.7636 25.9568 10.4277 27.1021H7.78271C7.23041 27.1021 6.78271 26.6479 6.78271 26.0876V21.0151H9.78271C10.335 21.0151 10.7827 20.561 10.7827 20.0007C10.7827 19.4403 10.335 18.9862 9.78271 18.9862H7.19452L9.09206 15.4569C9.26731 15.131 9.60401 14.9282 9.96996 14.9282H12.7827V24.7129ZM29.2827 28.1166C29.2827 27.2761 28.6112 26.5949 27.7827 26.5949C26.9543 26.5949 26.2827 27.2761 26.2827 28.1166C26.2827 28.957 26.9543 29.6383 27.7827 29.6383C28.6112 29.6383 29.2827 28.957 29.2827 28.1166ZM15.2827 28.1166C15.2827 27.2761 14.6112 26.5949 13.7827 26.5949C12.9543 26.5949 12.2827 27.2761 12.2827 28.1166C12.2827 28.957 12.9543 29.6383 13.7827 29.6383C14.6112 29.6383 15.2827 28.957 15.2827 28.1166Z" fill="#7ED6A0"></path><path d="M31.7827 8.33398H22.2827C21.7304 8.33398 21.2827 8.78819 21.2827 9.34848C21.2827 9.90878 21.7304 10.363 22.2827 10.363H31.7827C32.335 10.363 32.7827 10.8172 32.7827 11.3775V20.0007C32.7827 20.561 33.2304 21.0151 33.7827 21.0151C34.335 21.0151 34.7827 20.561 34.7827 20.0007V11.3775C34.7827 9.6966 33.4396 8.33398 31.7827 8.33398Z" fill="#7ED6A0"></path></svg>