<svg viewBox="0 0 40 40" fill="none" xmlns="http://www.w3.org/2000/svg" width="48" height="48" name="car"><path d="M4.14035 17.9955L11.0288 17.0604L16.323 11.9268C16.4936 11.7614 16.7297 11.666 16.979 11.666H31.2282C31.7399 11.666 32.1532 12.0668 32.1532 12.563V17.0477L34.8167 17.0541V14.5222C34.8167 14.1278 35.0529 13.7525 35.44 13.6317C36.0763 13.4345 36.6667 13.8925 36.6667 14.4841V20.1011C36.6667 20.6418 36.2141 21.0744 35.663 21.0744V24.465C35.663 24.9612 35.2497 25.3619 34.738 25.3619H33.3406C32.9208 27.0604 31.3463 28.3327 29.4634 28.3327C27.5806 28.3327 26.0061 27.0604 25.5863 25.3619H13.4102C12.9903 27.0604 11.4158 28.3327 9.53298 28.3327C7.65015 28.3327 6.07566 27.0604 5.65579 25.3619H4.25843C3.74672 25.3619 3.33342 24.9612 3.33342 24.465V18.8798C3.33998 18.4345 3.68112 18.0591 4.14035 17.9955ZM22.4438 13.4599H17.353L13.6857 17.0159L22.4438 17.035V13.4599ZM30.3032 13.4599H24.3004V17.035L30.3032 17.0413V13.4599ZM5.19001 23.5744H5.66235C6.08222 21.8759 7.65671 20.6037 9.53954 20.6037C11.4224 20.6037 12.9969 21.8759 13.4167 23.5744H25.5863C26.0061 21.8759 27.5806 20.6037 29.4634 20.6037C31.3463 20.6037 32.9208 21.8759 33.3406 23.5744H33.813V18.8416L11.5208 18.8034L5.19001 19.6622V23.5744ZM7.40086 24.4714C7.40086 25.6164 8.35867 26.5451 9.53954 26.5451C10.7204 26.5451 11.6782 25.6164 11.6782 24.4714C11.6782 23.3263 10.7204 22.3976 9.53954 22.3976C8.35867 22.3976 7.40086 23.3263 7.40086 24.4714ZM27.3248 24.4714C27.3248 25.6164 28.2826 26.5451 29.4634 26.5451C30.6443 26.5451 31.6021 25.6164 31.6021 24.4714C31.6021 23.3263 30.6443 22.3976 29.4634 22.3976C28.2826 22.3976 27.3248 23.3263 27.3248 24.4714Z" fill="#3E7BFA"></path></svg>