<svg viewBox="0 0 40 40" fill="#50CEC2" xmlns="http://www.w3.org/2000/svg" width="48" height="48" name="motorCycle"><path d="M9.2551 21.5668C9.2224 21.3256 9.1999 21.082 9.1999 20.8342V20.6893C9.1999 17.7259 10.3141 14.9401 12.2815 12.7984H10.9999C10.5028 12.7984 10.0999 12.3955 10.0999 11.8984V8.29844C10.0999 7.80134 10.5028 7.39844 10.9999 7.39844H11.6875C13.0768 7.39844 14.3428 8.07584 15.1114 9.19844H17.2999C17.797 9.19844 18.1999 9.60134 18.1999 10.0984C18.1999 10.5955 17.797 10.9984 17.2999 10.9984H15.4999V11.8984V19.0984C15.4999 21.0835 17.1148 22.6984 19.0999 22.6984H20.8999V18.9325C19.8547 18.5599 19.0999 17.5702 19.0999 16.3984C19.0999 14.9095 20.311 13.6984 21.7999 13.6984H28.0999C29.5888 13.6984 30.7999 14.9095 30.7999 16.3984C30.7999 17.1991 30.4426 17.9119 29.887 18.4069C31.636 19.4149 32.6875 20.9497 33.3082 22.3291C34.3876 24.7273 34.3999 27.0985 34.3999 27.1984C34.3999 27.6955 33.997 28.0984 33.4999 28.0984H31.6999C31.6999 30.5797 29.6812 32.5984 27.1999 32.5984C24.7186 32.5984 22.6999 30.5797 22.6999 28.0984H16.3999C16.3999 30.5797 14.3812 32.5984 11.8999 32.5984C9.4186 32.5984 7.3999 30.5797 7.3999 28.0984H6.4999C6.0028 28.0984 5.5999 27.6955 5.5999 27.1984C5.5999 24.5554 6.9256 22.5499 9.2551 21.5668ZM9.7921 23.2906C8.7478 23.7718 7.7395 24.655 7.4698 26.2984H12.4273L10.7815 24.6526C10.3759 24.247 10.0462 23.7868 9.7921 23.2906ZM11.8999 9.20774V10.9984H13.6999V10.3288C13.3105 9.68714 12.6469 9.27404 11.8999 9.20774ZM28.0999 17.2984C28.5961 17.2984 28.9999 16.8946 28.9999 16.3984C28.9999 15.9022 28.5961 15.4984 28.0999 15.4984H21.7999C21.3037 15.4984 20.8999 15.9022 20.8999 16.3984C20.8999 16.8946 21.3037 17.2984 21.7999 17.2984H25.3999C25.4002 17.2984 25.4002 17.2984 25.4011 17.2984H28.0999ZM27.1999 30.7984C28.6888 30.7984 29.8999 29.5873 29.8999 28.0984H24.4999C24.4999 29.5873 25.711 30.7984 27.1999 30.7984ZM32.5393 26.2984C32.3014 24.178 31.1326 19.0984 25.3999 19.0984H22.6999V22.6984C22.6999 23.6911 21.8926 24.4984 20.8999 24.4984H19.0999C16.1221 24.4984 13.6999 22.0762 13.6999 19.0984V13.8919C11.9701 15.7183 10.9999 18.13 10.9999 20.6893V20.8342C10.9999 21.7957 11.3743 22.7002 12.0541 23.38L14.9725 26.2984H32.5393ZM11.8999 30.7984C13.3888 30.7984 14.5999 29.5873 14.5999 28.0984H9.1999C9.1999 29.5873 10.411 30.7984 11.8999 30.7984Z" fill="#50CEC2"></path></svg>