<svg viewBox="0 0 48 49" fill="none" xmlns="http://www.w3.org/2000/svg" width="48" height="48" name="tractor"><path d="M21.6995 32.2539C22.9166 32.2539 23.8633 33.2006 23.8633 34.4177C23.8633 35.6349 22.9166 36.5815 21.6995 36.5815C20.4823 36.5815 19.5357 35.6349 19.5357 34.4177C19.5357 33.2006 20.55 32.2539 21.6995 32.2539ZM21.6995 35.2291C22.1728 35.2291 22.5109 34.891 22.5109 34.4177C22.5109 33.9444 22.1728 33.6063 21.6995 33.6063C21.2261 33.6063 20.8881 34.012 20.8881 34.4177C20.8881 34.891 21.2938 35.2291 21.6995 35.2291Z" fill="#FBA798" stroke="#FBA798" stroke-width="0.3"></path><path d="M38.9428 29.4141C40.7685 29.4141 42.1885 30.9017 42.1885 32.6598C42.1885 34.4855 40.7009 35.9055 38.9428 35.9055C37.1847 35.9055 35.6971 34.4855 35.6971 32.6598C35.6971 30.9017 37.1171 29.4141 38.9428 29.4141ZM38.9428 34.5531C39.9571 34.5531 40.8361 33.6741 40.8361 32.6598C40.8361 31.6455 39.9571 30.7664 38.9428 30.7664C37.9285 30.7664 37.0494 31.6455 37.0494 32.6598C37.0494 33.7417 37.9285 34.5531 38.9428 34.5531Z" fill="#FBA798" stroke="#FBA798" stroke-width="0.3"></path><path d="M40.498 13.1855V21.7731H32.519L33.6685 13.1855H40.498ZM39.1457 20.4208V14.5379H34.8181L34.0066 20.4208H39.1457Z" fill="#FBA798" stroke="#FBA798" stroke-width="0.3"></path><path d="M27.8529 30.6309H30.4224C30.8282 30.6309 31.0986 30.9013 31.0986 31.307C31.0986 31.7128 30.8282 31.9832 30.4224 31.9832H27.8529C27.4472 31.9832 27.1767 31.7128 27.1767 31.307C27.1767 30.969 27.5148 30.6309 27.8529 30.6309Z" fill="#FBA798" stroke="#FBA798" stroke-width="0.3"></path><path d="M25.7584 28.3302C25.3527 28.3302 25.0822 28.0598 25.0822 27.654V26.1664C25.0822 25.7607 25.3527 25.4902 25.7584 25.4902C26.1641 25.4902 26.4346 25.7607 26.4346 26.1664V27.654C26.4346 28.0598 26.1641 28.3302 25.7584 28.3302Z" fill="#FBA798" stroke="#FBA798" stroke-width="0.3"></path><path d="M23.2564 28.3302C22.8507 28.3302 22.5802 28.0598 22.5802 27.654V26.1664C22.5802 25.7607 22.8507 25.4902 23.2564 25.4902C23.6621 25.4902 23.9326 25.7607 23.9326 26.1664V27.654C23.9326 28.0598 23.5945 28.3302 23.2564 28.3302Z" fill="#FBA798" stroke="#FBA798" stroke-width="0.3"></path><path d="M9.86681 23.7338C9.86681 23.3281 10.1373 23.0576 10.543 23.0576H13.5858C13.9916 23.0576 14.262 23.3281 14.262 23.7338V30.09H16.2906L18.8601 27.6557C18.9954 25.4919 20.6182 23.6662 22.7144 23.2604V16.8366C22.7144 16.4309 22.9849 16.1605 23.3906 16.1605H24.2696V13.4557C24.2696 13.05 24.5401 12.7795 24.9458 12.7795C25.3515 12.7795 25.622 13.05 25.622 13.4557V16.1605H26.5011C26.9068 16.1605 27.1772 16.4309 27.1772 16.8366V23.1252H29.5439L31.0315 12.2386C31.2344 11.2243 32.1134 10.4805 33.1277 10.4805H41.0391C42.2563 10.4805 43.2029 11.4271 43.2029 12.6443V27.5204C44.7582 28.8052 45.6372 30.6985 45.6372 32.6595C45.6372 36.3785 42.662 39.3537 38.9429 39.3537C35.8325 39.3537 33.1277 37.1899 32.4515 34.2147H26.7039V34.3499C26.7039 37.1223 24.4725 39.3537 21.7001 39.3537C18.9277 39.3537 16.6963 37.1223 16.6963 34.3499C16.6963 32.7271 17.5077 31.2395 18.7925 30.2928V29.4814L16.9668 31.1719C16.8316 31.3071 16.6963 31.3747 16.4935 31.3747H14.1944V34.688C14.1944 36.7166 12.5039 38.4071 10.4754 38.4071H3.0373C2.63158 38.4071 2.36111 38.1366 2.36111 37.7309C2.36111 37.528 2.42873 37.3252 2.56396 37.2576C4.66015 34.5528 9.86681 27.1147 9.86681 23.7338ZM25.8249 17.5128H24.1344V23.1252H25.8249V17.5128ZM41.8505 12.6443C41.8505 12.2386 41.5125 11.8328 41.0391 11.8328H33.1277C32.722 11.8328 32.4515 12.1033 32.3839 12.4414L30.9639 23.1252H41.8505V12.6443ZM38.9429 38.069C41.9182 38.069 44.2848 35.7023 44.2848 32.7271C44.2848 29.8195 41.9182 27.3852 38.9429 27.3852C35.6972 27.3852 33.1953 30.2252 33.6687 33.5385C34.0068 36.108 36.3058 38.069 38.9429 38.069ZM38.9429 25.9652C39.9572 25.9652 40.9715 26.2357 41.8505 26.6414V24.4776H29.4087C29.3411 24.4776 23.4582 24.4776 23.7287 24.4776C21.8354 24.4776 20.2801 26.0328 20.2801 27.9262V29.6842C20.6858 29.549 21.2944 29.4814 21.7677 29.4814C23.8639 29.4814 25.8249 30.8338 26.5011 32.9299V32.9976H32.2487C32.1134 29.1433 35.1563 25.9652 38.9429 25.9652ZM18.1163 34.4176C18.1163 36.4461 19.7392 38.069 21.7677 38.069C23.7963 38.069 25.4192 36.4461 25.4192 34.4176C25.4192 32.389 23.7963 30.7661 21.7677 30.7661C19.7392 30.7661 18.1163 32.389 18.1163 34.4176ZM10.543 37.0547C11.8278 37.0547 12.9097 35.9728 12.9097 34.688V24.41H11.2192C10.7458 28.2642 6.283 34.5528 4.45729 37.0547H10.543Z" fill="#FBA798" stroke="#FBA798" stroke-width="0.3"></path></svg>